<svg width="176" height="260" viewBox="0 0 176 260" fill="none" xmlns="http://www.w3.org/2000/svg">
<g opacity="0.24">
<path d="M95.4169 177.366C51.697 187.223 7.82903 170.202 0.961708 122.338C-1.16953 107.508 -0.903124 104.815 13.9859 103.364C66.2012 98.2731 90.6217 128.081 95.4465 177.336L95.4169 177.366Z" fill="white"/>
<path d="M198.751 186.512C199.728 241.096 155.387 269.216 104.355 257.258C105.095 201.727 144.938 171.239 198.751 186.512Z" fill="white"/>
<path d="M198.751 106.591C199.817 160.701 155.268 189.946 104.355 177.337C104.859 122.753 145.027 91.1104 198.751 106.591Z" fill="white"/>
<path d="M97.28 0C143.723 27.4693 141.355 87.3807 99.8256 118.136C60.4569 87.3807 55.5136 31.1693 97.28 0Z" fill="white"/>
<path d="M95.4032 257.287C44.1055 268.92 -1.95286 242.724 1.06639 186.661C54.3769 170.055 92.6504 204.095 95.4032 257.287Z" fill="white"/>
</g>
</svg>
