<svg width="20" height="27" viewBox="0 0 20 27" fill="none" xmlns="http://www.w3.org/2000/svg">
<path d="M9.60071 17.8466C5.20167 18.8384 0.787745 17.1258 0.0967656 12.3098C-0.117676 10.8176 -0.090871 10.5466 1.40724 10.4007C6.66107 9.88839 9.11821 12.8876 9.60369 17.8436L9.60071 17.8466Z" fill="url(#paint0_linear_390_4424)"/>
<path d="M19.998 18.7668C20.0963 24.2589 15.6347 27.0884 10.5 25.8851C10.5745 20.2977 14.5833 17.23 19.998 18.7668Z" fill="url(#paint1_linear_390_4424)"/>
<path d="M19.998 10.7252C20.1052 16.1696 15.6228 19.1122 10.5 17.8434C10.5506 12.3513 14.5923 9.16748 19.998 10.7252Z" fill="url(#paint2_linear_390_4424)"/>
<path d="M9.78747 0C14.4605 2.76392 14.2222 8.79212 10.0436 11.8866C6.08239 8.79212 5.58501 3.13621 9.78747 0Z" fill="url(#paint3_linear_390_4424)"/>
<path d="M9.59993 25.8881C4.43843 27.0586 -0.195895 24.4228 0.107898 18.7817C5.47192 17.1109 9.32294 20.536 9.59993 25.8881Z" fill="url(#paint4_linear_390_4424)"/>
<defs>
<linearGradient id="paint0_linear_390_4424" x1="4.80184" y1="10.344" x2="9.51629" y2="18.9411" gradientUnits="userSpaceOnUse">
<stop stop-color="#00A256"/>
<stop offset="1" stop-color="#5DC671"/>
</linearGradient>
<linearGradient id="paint1_linear_390_4424" x1="15.2498" y1="18.3718" x2="20.0051" y2="26.9336" gradientUnits="userSpaceOnUse">
<stop stop-color="#00A256"/>
<stop offset="1" stop-color="#5DC671"/>
</linearGradient>
<linearGradient id="paint2_linear_390_4424" x1="15.2499" y1="10.3298" x2="20.023" y2="18.9029" gradientUnits="userSpaceOnUse">
<stop stop-color="#00A256"/>
<stop offset="1" stop-color="#5DC671"/>
</linearGradient>
<linearGradient id="paint3_linear_390_4424" x1="10.0413" y1="0" x2="18.3668" y2="6.60289" gradientUnits="userSpaceOnUse">
<stop stop-color="#00A256"/>
<stop offset="1" stop-color="#5DC671"/>
</linearGradient>
<linearGradient id="paint4_linear_390_4424" x1="4.84684" y1="18.3557" x2="9.61728" y2="26.9308" gradientUnits="userSpaceOnUse">
<stop stop-color="#00A256"/>
<stop offset="1" stop-color="#5DC671"/>
</linearGradient>
</defs>
</svg>
